<?xml version="1.0" encoding="utf-8"?>
<!-- Generator: Adobe Illustrator 27.5.0, SVG Export Plug-In . SVG Version: 6.00 Build 0)  -->
<svg version="1.1" xmlns="http://www.w3.org/2000/svg" xmlns:xlink="http://www.w3.org/1999/xlink" x="0px" y="0px"
	 viewBox="0 0 3710 3710" style="enable-background:new 0 0 3710 3710;" xml:space="preserve">
<g id="Background">
	<g>
		<g>
			<rect style="fill:#FFFFFF;" width="3710" height="3710"/>
		</g>
	</g>
</g>
<g id="Illustration">
	<g>
		<linearGradient id="SVGID_1_" gradientUnits="userSpaceOnUse" x1="3446.4507" y1="3253.3149" x2="1393.1542" y2="1456.6819">
			<stop  offset="0" style="stop-color:#B37CFF"/>
			<stop  offset="1" style="stop-color:#F895E7"/>
		</linearGradient>
		<path style="opacity:0.3;fill:url(#SVGID_1_);" d="M3097.497,2320.243c-265.368,624.836-972.249,974.874-1585.257,880.453
			c-99.749-15.365-373.213-61.132-615.328-277.048c-466.087-415.655-565.763-1238.705-189.785-1818.729
			c273.646-422.155,764.185-661.461,1230.293-649.49c100.4,2.578,485.173,18.469,823.322,297.299
			c49.667,40.955,159.214,138.275,257.942,292.666C3250.514,1407.933,3270.441,1913.03,3097.497,2320.243z"/>
		<g>
			<g>
				
					<linearGradient id="SVGID_00000084504086006662521340000002672638140030105022_" gradientUnits="userSpaceOnUse" x1="1952.3217" y1="960.9005" x2="1796.3629" y2="2832.4214">
					<stop  offset="0" style="stop-color:#2B3582"/>
					<stop  offset="1" style="stop-color:#150E42"/>
				</linearGradient>
				<path style="fill:url(#SVGID_00000084504086006662521340000002672638140030105022_);" d="M644.225,2729.855
					c0,24.201,19.82,44.002,44.045,44.002h2381.747c24.224,0,44.044-19.801,44.044-44.002l19.818-1368.724
					c0-24.201-28.513-71.448-80.768-67.897l-2327.706-60.229c-30.395-0.786-59.783,10.912-81.306,32.366
					c-21.523,21.454-33.301,50.786-32.582,81.153L644.225,2729.855z"/>
				
					<linearGradient id="SVGID_00000119086507046284205090000015961688211729713033_" gradientUnits="userSpaceOnUse" x1="619.6445" y1="3121.8887" x2="4307.7471" y2="-177.6366">
					<stop  offset="0" style="stop-color:#FDF53F"/>
					<stop  offset="1" style="stop-color:#D93C65"/>
				</linearGradient>
				<path style="fill:url(#SVGID_00000119086507046284205090000015961688211729713033_);" d="M687.708,2687.641
					c0,22.917,18.751,41.669,41.669,41.669H3012.58c22.918,0,41.669-18.752,41.669-41.669L3072.95,1445.1
					c-2.202-74.773-67.758-101.647-107.496-100.061L734.56,1285.188c-21.354-0.573-41.999,7.654-57.123,22.74
					c-15.124,15.085-23.442,35.73-22.906,57.085L687.708,2687.641z"/>
				<g>
					<path style="fill:#FFFFFF;" d="M3029.577,2097.347c-0.031,0-0.061,0-0.091,0c-3.374-0.049-6.068-2.822-6.016-6.199
						l1.478-100.768c0.049-3.34,2.773-6.016,6.101-6.016c0.031,0,0.061,0,0.092,0c3.374,0.049,6.068,2.822,6.016,6.199
						l-1.478,100.768C3035.63,2094.671,3032.905,2097.347,3029.577,2097.347z"/>
					<path style="fill:#FFFFFF;" d="M3033.204,1850.413c-0.031,0-0.061,0-0.091,0c-3.374-0.049-6.068-2.828-6.016-6.199
						l5.666-385.944c-0.107-22.925-7.064-41.229-20.685-54.279c-25.424-24.357-65.787-23.113-67.487-23.034l-713.043-19.121
						c-3.371-0.085-6.031-2.895-5.94-6.266c0.088-3.371,2.679-6.242,6.269-5.937l712.619,19.121
						c4.434-0.262,47.409-1.006,76.03,26.417c16.101,15.427,24.326,36.682,24.448,63.16l-5.669,386.066
						C3039.256,1847.737,3036.532,1850.413,3033.204,1850.413z"/>
				</g>
				
					<linearGradient id="SVGID_00000145773811687711552610000000754172186304788923_" gradientUnits="userSpaceOnUse" x1="1857.5354" y1="2590.3054" x2="1843.9467" y2="3860.7766">
					<stop  offset="0" style="stop-color:#2B3582"/>
					<stop  offset="1" style="stop-color:#150E42"/>
				</linearGradient>
				<path style="fill:url(#SVGID_00000145773811687711552610000000754172186304788923_);" d="M456.661,2887.478h2796.678
					c3.109,0,5.654-2.544,5.654-5.654v-108.953c0-3.11-2.544-5.654-5.654-5.654H456.661c-3.11,0-5.654,2.544-5.654,5.654v108.953
					C451.007,2884.934,453.551,2887.478,456.661,2887.478z"/>
			</g>
		</g>
		<g>
			
				<linearGradient id="SVGID_00000055691020613776291870000001307932366480323001_" gradientUnits="userSpaceOnUse" x1="2095.948" y1="726.3101" x2="1700.306" y2="3307.1118">
				<stop  offset="0" style="stop-color:#53D8FF"/>
				<stop  offset="0.2057" style="stop-color:#4DB9FD"/>
				<stop  offset="1" style="stop-color:#3840F7"/>
			</linearGradient>
			<path style="fill:url(#SVGID_00000055691020613776291870000001307932366480323001_);" d="M2649.828,530.278l-1496.071-9.159
				c-49.167-0.302-88.491,40.768-86.056,89.876l102.926,2125.559h1664.848l92.439-1899.073L2649.828,530.278z"/>
			
				<linearGradient id="SVGID_00000108300815442056201870000004807232917362417330_" gradientUnits="userSpaceOnUse" x1="2943.6599" y1="433.939" x2="2304.5735" y2="1456.4766">
				<stop  offset="0" style="stop-color:#53D8FF"/>
				<stop  offset="0.2057" style="stop-color:#4DB9FD"/>
				<stop  offset="1" style="stop-color:#3840F7"/>
			</linearGradient>
			<path style="fill:url(#SVGID_00000108300815442056201870000004807232917362417330_);" d="M2712.038,828.375
				c-48.734-1.715-86.201-43.717-82.36-92.33l16.038-202.967l282.492,303.156L2712.038,828.375z"/>
			<g>
				<g>
					<path style="opacity:0.78;fill:#FFFFFF;" d="M2005.544,1066.422c119.161,1.683,576.61,7.637,692.124,9.138
						c14.57,0.189,26.249,9.823,25.807,21.264l0,0c-0.42,10.891-11.73,19.408-25.599,19.277l-691.779-6.496
						c-13.325-0.125-24.525-8.211-25.838-18.654l-0.332-2.642C1978.426,1076.369,1990.307,1066.207,2005.544,1066.422z"/>
					<path style="opacity:0.78;fill:#FFFFFF;" d="M1993.16,1193.368L1993.16,1193.368c1.918,2.741,5.544,4.487,9.492,4.572
						l474.791,10.202c5.964,0.128,10.876-3.513,11.057-8.197l0.948-24.574c0.188-4.883-4.823-8.988-11.04-9.045l-461.771-4.241
						C1996.069,1161.896,1983.166,1179.091,1993.16,1193.368z"/>
				</g>
				<g>
					<path style="opacity:0.78;fill:#FFFFFF;" d="M1996.174,1288.693c119.161,1.684,576.61,7.637,692.124,9.139
						c14.571,0.189,26.249,9.823,25.808,21.264l0,0c-0.42,10.891-11.73,19.408-25.6,19.278l-691.779-6.497
						c-13.325-0.125-24.525-8.211-25.838-18.654l-0.332-2.642C1969.057,1298.64,1980.937,1288.478,1996.174,1288.693z"/>
					<path style="opacity:0.78;fill:#FFFFFF;" d="M1983.79,1415.639L1983.79,1415.639c1.919,2.741,5.544,4.487,9.492,4.571
						l474.791,10.202c5.964,0.128,10.876-3.513,11.057-8.197l0.948-24.574c0.188-4.883-4.822-8.988-11.041-9.045l-461.77-4.241
						C1986.7,1384.167,1973.796,1401.362,1983.79,1415.639z"/>
				</g>
				<g>
					<g>
						<g style="opacity:0.8;">
							<path style="fill:#FFFFFF;" d="M1792.16,1050.611c-2.442-3.003-6.273-4.249-10.336-4.163l-369.933,7.76l-9.345-29.684
								c-1.299-4.135-5.188-6.784-9.586-6.668l-50.791,1.335c-5.446,0.143-9.857,3.93-9.857,9.366s4.411,9.003,9.857,8.874
								l43.404-1.026l78.539,250.966c1.322,4.224,5.288,7.129,9.783,7.19l259.654,3.486c6.094,0.082,11.041-3.742,11.041-9.504
								c0-5.761-4.947-9.706-11.041-9.772l-252.078-2.717l-20.231-65.161l277.012,0.42c5.672,0.009,10.671-3.703,12.261-8.85
								l43.72-141.363C1795.374,1057.411,1794.606,1053.615,1792.16,1050.611z"/>
							<path style="fill:#FFFFFF;" d="M1511.881,1310.04c-21.364-0.332-38.648,16.296-38.648,37.065
								c0,20.769,17.284,38.119,38.648,38.68c21.493,0.565,39.075-16.057,39.075-37.055
								C1550.956,1327.731,1533.373,1310.374,1511.881,1310.04z M1511.881,1365.587c-9.985-0.234-18.089-8.332-18.089-18.052
								c0-9.721,8.104-17.48,18.089-17.296c10.013,0.184,18.182,8.283,18.182,18.054
								C1530.062,1358.063,1521.894,1365.821,1511.881,1365.587z"/>
							<path style="fill:#FFFFFF;" d="M1684.969,1312.731c-22.423-0.349-40.561,16.678-40.561,37.953
								c0,21.275,18.139,39.06,40.561,39.649c22.561,0.593,41.02-16.427,41.02-37.943
								C1725.989,1330.873,1707.53,1313.082,1684.969,1312.731z M1684.969,1369.639c-10.48-0.245-18.985-8.546-18.985-18.504
								c0-9.958,8.505-17.903,18.985-17.71c10.51,0.193,19.085,8.495,19.085,18.506
								C1704.054,1361.941,1695.48,1369.885,1684.969,1369.639z"/>
						</g>
					</g>
					<path style="opacity:0.81;fill:#FFFFFF;" d="M1580.303,1484.45c-178.313,0-323.382-145.069-323.382-323.382
						c0-178.313,145.069-323.382,323.382-323.382s323.382,145.069,323.382,323.382
						C1903.685,1339.381,1758.616,1484.45,1580.303,1484.45z M1580.303,864.956c-163.277,0-296.113,132.836-296.113,296.113
						c0,163.277,132.836,296.113,296.113,296.113s296.113-132.836,296.113-296.113
						C1876.416,997.791,1743.58,864.956,1580.303,864.956z"/>
				</g>
			</g>
		</g>
		<g>
			<g>
				<g style="opacity:0.3;">
					
						<linearGradient id="SVGID_00000056392680126289878920000000131746054720503469_" gradientUnits="userSpaceOnUse" x1="-2633.5664" y1="3737.0493" x2="-2113.1973" y2="3737.0493" gradientTransform="matrix(-0.3092 0.951 0.951 0.3092 -3573.1167 2016.7596)">
						<stop  offset="0" style="stop-color:#B37CFF"/>
						<stop  offset="1" style="stop-color:#F895E7"/>
					</linearGradient>
					<path style="fill:url(#SVGID_00000056392680126289878920000000131746054720503469_);" d="M986.745,742.593
						c-2.048,4.605-7.443,6.675-12.045,4.626c-8.944-3.979-18.192-7.631-27.492-10.851c-4.705-1.629-7.223-6.723-5.691-11.438
						c0.018-0.056,0.036-0.112,0.055-0.169c1.649-4.761,6.846-7.283,11.608-5.634c9.787,3.39,19.525,7.232,28.94,11.423
						c4.305,1.915,6.395,6.759,4.969,11.144C986.991,741.996,986.878,742.297,986.745,742.593z M900.872,723.799
						c-9.646-1.922-19.466-3.449-29.195-4.54c-5.004-0.561-8.61-5.074-8.05-10.081c0.58-5.024,5.078-8.611,10.085-8.049
						c10.235,1.147,20.572,2.754,30.723,4.774c4.941,0.984,8.149,5.79,7.165,10.731c-0.072,0.359-0.164,0.709-0.274,1.048
						C909.916,722.018,905.454,724.712,900.872,723.799z M823.734,717.245c-9.805,0.273-19.717,0.976-29.466,2.091
						c-5.005,0.572-9.528-3.023-10.101-8.028c-0.566-5.001,3.022-9.525,8.028-10.1c10.266-1.174,20.707-1.915,31.03-2.201
						c5.037-0.14,9.232,3.83,9.375,8.866c0.029,1.073-0.127,2.109-0.441,3.075C831,714.513,827.697,717.136,823.734,717.245z
						 M747.068,728.108c-9.508,2.46-19.018,5.364-28.27,8.625c-4.752,1.674-9.963-0.82-11.638-5.571
						c-1.67-4.753,0.825-9.96,5.571-11.638c9.742-3.433,19.755-6.488,29.76-9.081c4.877-1.262,9.856,1.668,11.118,6.545
						c0.452,1.745,0.368,3.503-0.151,5.099C752.527,724.953,750.2,727.295,747.068,728.108z M674.733,755.78
						c-8.702,4.5-17.337,9.437-25.658,14.675c-4.267,2.682-9.898,1.4-12.582-2.863c-2.686-4.266-1.402-9.899,2.864-12.579
						c8.754-5.51,17.84-10.705,26.997-15.44c4.474-2.315,9.979-0.563,12.293,3.914c1.167,2.255,1.3,4.771,0.573,7.01
						C678.504,752.7,676.954,754.632,674.733,755.78z M610.324,798.767c-7.504,6.322-14.827,13.045-21.77,19.983
						c-3.564,3.561-9.342,3.56-12.901-0.003c-3.563-3.564-3.563-9.339,0.002-12.903c7.305-7.302,15.017-14.378,22.913-21.032
						c3.854-3.245,9.607-2.754,12.855,1.099c2.109,2.503,2.638,5.808,1.696,8.707C612.611,796.183,611.676,797.629,610.324,798.767z
						 M481.445,1112.071c-5.006,0.565-9.524-3.036-10.088-8.044c-1.155-10.257-1.876-20.704-2.145-31.048
						c-0.131-5.038,3.847-9.227,8.884-9.356c5.034-0.132,9.223,3.845,9.355,8.881c0.255,9.821,0.942,19.741,2.039,29.481
						c0.15,1.336,0.005,2.636-0.386,3.837C488.033,1109.12,485.117,1111.659,481.445,1112.071z M557.078,854.928
						c-5.906,7.828-11.545,16.008-16.756,24.315c-2.68,4.268-8.312,5.557-12.578,2.879c-4.27-2.679-5.534-8.299-2.877-12.578
						c5.489-8.747,11.427-17.361,17.647-25.604c3.035-4.021,8.755-4.822,12.778-1.787c3.19,2.406,4.353,6.504,3.183,10.103
						C558.171,853.193,557.705,854.096,557.078,854.928z M479.46,1032.585c-5.005-0.57-8.6-5.093-8.03-10.099
						c1.172-10.253,2.802-20.593,4.838-30.73c0.972-4.949,5.804-8.137,10.743-7.146c4.938,0.993,8.137,5.803,7.146,10.743
						c-1.937,9.634-3.486,19.459-4.597,29.204c-0.071,0.622-0.206,1.22-0.392,1.793
						C487.855,1030.39,483.843,1033.086,479.46,1032.585z M517.726,921.568c-4.003,8.947-7.673,18.184-10.905,27.459
						c-1.656,4.76-6.857,7.271-11.617,5.613c-4.695-1.637-7.204-6.725-5.674-11.432c0.02-0.061,0.04-0.124,0.064-0.183
						c3.4-9.765,7.262-19.491,11.474-28.908c2.061-4.598,7.456-6.659,12.056-4.602c4.296,1.921,6.376,6.759,4.953,11.137
						C517.976,920.96,517.858,921.266,517.726,921.568z"/>
					
						<linearGradient id="SVGID_00000177455497400341891670000010987275628859255188_" gradientUnits="userSpaceOnUse" x1="-2087.9016" y1="3599.9954" x2="-2057.511" y2="3599.9954" gradientTransform="matrix(-0.3092 0.951 0.951 0.3092 -3573.1167 2016.7596)">
						<stop  offset="0" style="stop-color:#B37CFF"/>
						<stop  offset="1" style="stop-color:#F895E7"/>
					</linearGradient>
					<path style="fill:url(#SVGID_00000177455497400341891670000010987275628859255188_);" d="M502.006,1168.571
						c0.555-1.708,0.615-3.598,0.056-5.449c-1.362-4.503-2.648-9.109-3.834-13.691c-1.258-4.878-6.236-7.813-11.112-6.552
						c-4.879,1.258-7.82,6.235-6.551,11.115c1.243,4.82,2.599,9.664,4.03,14.403c1.456,4.822,6.549,7.553,11.369,6.096
						C498.938,1173.595,501.114,1171.316,502.006,1168.571z"/>
				</g>
				<g style="opacity:0.3;">
					
						<linearGradient id="SVGID_00000120558884019877011260000003631477897807514258_" gradientUnits="userSpaceOnUse" x1="-1930.1609" y1="3832.2231" x2="-1909.3065" y2="3832.2231" gradientTransform="matrix(-0.3092 0.951 0.951 0.3092 -3573.1167 2016.7596)">
						<stop  offset="0" style="stop-color:#B37CFF"/>
						<stop  offset="1" style="stop-color:#F895E7"/>
					</linearGradient>
					<path style="fill:url(#SVGID_00000120558884019877011260000003631477897807514258_);" d="M680.014,1382.286
						c1.361-4.187-0.477-8.86-4.521-10.932c-4.186-2.142-8.399-4.409-12.517-6.737c-4.388-2.479-9.953-0.933-12.432,3.453
						c-2.489,4.405-0.931,9.954,3.453,12.432c4.337,2.45,8.773,4.838,13.18,7.095c4.485,2.296,9.982,0.521,12.279-3.963
						C679.681,1383.193,679.866,1382.741,680.014,1382.286z"/>
					
						<linearGradient id="SVGID_00000090286797730021815820000014205776495495486873_" gradientUnits="userSpaceOnUse" x1="-2440.842" y1="4069.4351" x2="-1904.85" y2="4069.4351" gradientTransform="matrix(-0.3092 0.951 0.951 0.3092 -3573.1167 2016.7596)">
						<stop  offset="0" style="stop-color:#B37CFF"/>
						<stop  offset="1" style="stop-color:#F895E7"/>
					</linearGradient>
					<path style="fill:url(#SVGID_00000090286797730021815820000014205776495495486873_);" d="M1174.01,1193.277
						c-1.79,4.71-7.06,7.077-11.772,5.285c-4.709-1.791-7.067-7.053-5.283-11.77c3.409-8.966,6.488-18.217,9.194-27.599
						c1.373-4.822,6.454-7.634,11.295-6.238c4.841,1.396,7.634,6.452,6.24,11.294c-1.172,4.065-2.407,8.095-3.705,12.087
						C1178.127,1182.031,1176.12,1187.731,1174.01,1193.277z M1183.838,1123.36c-4.983-0.728-8.435-5.359-7.706-10.344
						c1.396-9.572,2.405-19.305,2.994-28.931c0.292-5.024,4.633-8.857,9.663-8.55c5.026,0.308,8.854,4.635,8.546,9.662
						c-0.62,10.135-1.68,20.382-3.152,30.454c-0.076,0.522-0.196,1.029-0.353,1.513
						C1192.482,1121.314,1188.303,1124.012,1183.838,1123.36z M1153.201,1238.426c-4.87,8.905-10.188,17.725-15.81,26.211
						c-2.782,4.201-8.443,5.35-12.646,2.568c-4.199-2.782-5.343-8.439-2.567-12.644c5.34-8.059,10.39-16.432,15.013-24.889
						c2.419-4.42,7.961-6.045,12.384-3.627c3.91,2.139,5.63,6.724,4.301,10.815
						C1153.702,1237.391,1153.479,1237.917,1153.201,1238.426z M1188.56,1045.26c-5.023,0.385-9.41-3.376-9.792-8.399
						c-0.737-9.63-1.896-19.343-3.441-28.869c-0.81-4.977,2.567-9.659,7.543-10.466c4.973-0.808,9.657,2.568,10.465,7.541
						c1.628,10.032,2.848,20.262,3.625,30.401c0.092,1.225-0.057,2.413-0.416,3.515
						C1195.435,1042.393,1192.357,1044.969,1188.56,1045.26z M1107.177,1304.069c-6.705,7.611-13.831,15.041-21.18,22.086
						c-3.636,3.487-9.409,3.366-12.896-0.27c-3.49-3.638-3.367-9.413,0.27-12.9c6.979-6.693,13.748-13.749,20.115-20.978
						c3.331-3.781,9.097-4.145,12.878-0.814c2.817,2.482,3.736,6.315,2.646,9.67
						C1108.636,1302.012,1108.026,1303.106,1107.177,1304.069z M1047.872,1358.028c-8.227,5.976-16.802,11.673-25.486,16.937
						c-4.311,2.61-9.919,1.234-12.531-3.075c-2.614-4.316-1.237-9.924,3.076-12.529c8.251-5.001,16.4-10.416,24.219-16.093
						c4.077-2.961,9.782-2.056,12.743,2.02c1.783,2.457,2.163,5.505,1.291,8.188
						C1050.609,1355.244,1049.491,1356.853,1047.872,1358.028z M978.215,1397.782c-9.338,4.045-18.951,7.739-28.568,10.983
						c-4.776,1.61-9.949-0.956-11.56-5.729c-1.612-4.781,0.957-9.95,5.729-11.56c9.14-3.08,18.271-6.592,27.147-10.437
						c4.623-2.003,9.995,0.122,11.996,4.745c0.921,2.124,0.97,4.403,0.307,6.444C982.484,1394.63,980.714,1396.698,978.215,1397.782
						z M901.545,1421.393c-9.995,1.905-20.188,3.405-30.295,4.456c-5.011,0.522-9.497-3.118-10.019-8.13
						c-0.521-5.003,3.12-9.494,8.131-10.016c9.595-0.999,19.273-2.422,28.768-4.233c4.949-0.943,9.725,2.303,10.667,7.253
						c0.297,1.564,0.177,3.108-0.282,4.521C907.521,1418.306,904.933,1420.747,901.545,1421.393z M821.519,1427.584
						c-10.144-0.343-20.408-1.127-30.51-2.327c-5.004-0.595-8.58-5.133-7.984-10.137c0.595-4.987,5.131-8.577,10.135-7.982
						c9.596,1.141,19.345,1.884,28.981,2.212c5.034,0.17,8.978,4.392,8.806,9.426c-0.03,0.877-0.181,1.721-0.439,2.516
						C829.284,1425.06,825.678,1427.725,821.519,1427.584z M742.17,1416.064c-7.241-1.875-14.514-3.996-21.614-6.304
						c-2.572-0.836-5.125-1.698-7.665-2.586c-4.754-1.662-7.377-6.837-5.601-11.62c1.659-4.757,6.863-7.266,11.621-5.605
						c2.413,0.842,4.844,1.665,7.287,2.459c6.751,2.195,13.661,4.211,20.546,5.994c4.877,1.262,7.807,6.241,6.544,11.117
						c-0.048,0.183-0.1,0.365-0.158,0.543C751.651,1414.611,746.864,1417.28,742.17,1416.064z"/>
					
						<linearGradient id="SVGID_00000136384766226082573020000013837937886704859055_" gradientUnits="userSpaceOnUse" x1="-2494.2681" y1="4182.4048" x2="-2464.2651" y2="4182.4048" gradientTransform="matrix(-0.3092 0.951 0.951 0.3092 -3573.1167 2016.7596)">
						<stop  offset="0" style="stop-color:#B37CFF"/>
						<stop  offset="1" style="stop-color:#F895E7"/>
					</linearGradient>
					<path style="fill:url(#SVGID_00000136384766226082573020000013837937886704859055_);" d="M1181.905,961.915
						c0.561-1.725,0.615-3.631,0.044-5.494c-1.452-4.721-3.03-9.5-4.693-14.206c-1.678-4.752-6.89-7.243-11.64-5.564
						c-4.75,1.68-7.245,6.885-5.564,11.64c1.578,4.47,3.078,9.01,4.457,13.492c1.478,4.814,6.582,7.519,11.399,6.039
						C1178.86,966.913,1181.018,964.643,1181.905,961.915z"/>
				</g>
				<g>
					
						<linearGradient id="SVGID_00000109010996792657875190000013096191868981113242_" gradientUnits="userSpaceOnUse" x1="2928.8381" y1="2533.2979" x2="4923.2217" y2="5216.3887" gradientTransform="matrix(0.3688 -0.9295 0.9295 0.3688 -4008.7405 3226.6853)">
						<stop  offset="0" style="stop-color:#A737D5"/>
						<stop  offset="1" style="stop-color:#EF497A"/>
					</linearGradient>
					<path style="fill:url(#SVGID_00000109010996792657875190000013096191868981113242_);" d="M1043.771,888.567
						c-0.986-1.53-2.831-2.266-4.599-1.833l-50.409,12.333c-17.421-16.849-37.653-31.04-60.181-41.742l-6.141-51.497
						c-0.216-1.806-1.554-3.277-3.331-3.662l-60.836-13.181c-1.778-0.386-3.605,0.4-4.548,1.954l-26.906,44.338
						c-24.937,0.417-49.23,4.961-72.062,13.088l-40.782-32.092c-1.43-1.124-3.416-1.219-4.945-0.234l-52.339,33.697
						c-1.529,0.984-2.266,2.832-1.833,4.599l12.334,50.408c-16.849,17.42-31.041,37.653-41.742,60.182l-51.497,6.141
						c-1.807,0.215-3.277,1.552-3.662,3.331l-13.183,60.837c-0.385,1.778,0.401,3.604,1.955,4.548l44.338,26.906
						c0.417,24.937,4.961,49.23,13.088,72.062l-32.093,40.782c-1.125,1.429-1.22,3.415-0.234,4.945l33.697,52.339
						c0.984,1.529,2.832,2.265,4.598,1.833l50.41-12.334c17.42,16.849,37.653,31.04,60.181,41.742l6.141,51.498
						c0.215,1.807,1.553,3.277,3.33,3.662l60.837,13.182c1.778,0.385,3.604-0.4,4.547-1.955l26.906-44.338
						c24.937-0.417,49.23-4.961,72.062-13.088l40.782,32.092c1.429,1.125,3.415,1.219,4.945,0.234l52.339-33.697
						c1.529-0.985,2.265-2.831,1.833-4.598l-12.334-50.409c16.849-17.42,31.04-37.653,41.743-60.181l51.497-6.141
						c1.805-0.216,3.276-1.553,3.662-3.331l13.181-60.837c0.385-1.778-0.4-3.604-1.955-4.548l-44.337-26.906
						c-0.417-24.937-4.962-49.23-13.088-72.062l32.093-40.782c1.125-1.429,1.219-3.416,0.234-4.945L1043.771,888.567z"/>
					<path style="opacity:0.56;fill:#FFFFFF;" d="M886.863,1090.505c-15.338,30.904-52.956,43.571-83.864,28.233
						c-14.972-7.428-26.154-20.245-31.485-36.084c-5.333-15.836-4.181-32.806,3.253-47.778
						c15.338-30.905,52.956-43.571,83.864-28.233c28.117,13.954,41.136,46.349,31.706,75.355
						C889.402,1084.874,888.245,1087.718,886.863,1090.505z M785.349,1077.997c4.089,12.146,12.661,21.97,24.142,27.668
						c23.693,11.757,52.541,2.048,64.299-21.648c11.77-23.698,2.048-52.541-21.648-64.301
						c-23.693-11.757-52.541-2.048-64.299,21.648c-1.066,2.149-1.961,4.348-2.689,6.588
						C781.99,1057.68,782.026,1068.126,785.349,1077.997z"/>
					<path style="opacity:0.56;fill:#FFFFFF;" d="M975.887,1111.156c1.62-4.982,2.998-10.074,4.123-15.263l0,0
						c0.355-1.633,0.682-3.273,0.984-4.917c1.485-8.108,2.323-16.321,2.502-24.512c0.003-0.112,0.005-0.223,0.008-0.335
						c0.005-0.317,0.011-0.633,0.013-0.951c0.009-0.617,0.011-1.234,0.013-1.85c0.003-1.621-1.053-2.997-2.516-3.475
						c-0.356-0.116-0.737-0.178-1.13-0.178c-2.015-0.003-3.645,1.633-3.651,3.645c-0.01,10.371-1.14,20.809-3.357,31.026
						c-10.989,50.756-47.204,89.673-92.639,106.47c-25.271,9.346-53.396,11.845-81.625,5.727c-4.95-1.072-9.81-2.386-14.561-3.932
						c-31.977-10.4-59.179-31.307-77.626-59.962c-21.192-32.914-28.297-72.112-20.008-110.368
						c17.128-79.01,95.291-129.309,174.264-112.196c4.87,1.055,9.668,2.353,14.374,3.885c20.398,6.635,39.117,17.66,54.775,32.349
						c0.405,0.379,0.872,0.649,1.367,0.808c1.301,0.423,2.791,0.093,3.79-0.973c1.375-1.475,1.311-3.778-0.166-5.159
						c-16.439-15.421-36.092-26.998-57.506-33.964c-4.94-1.608-9.976-2.97-15.087-4.079
						c-82.915-17.967-164.985,34.897-182.946,117.783c-8.703,40.164-1.242,81.311,21.005,115.865
						c19.365,30.083,47.922,52.031,81.492,62.95c4.989,1.622,10.09,3.001,15.284,4.128c40.166,8.702,81.315,1.243,115.868-21.003
						C943.021,1173.302,964.97,1144.734,975.887,1111.156z"/>
				</g>
			</g>
			<g>
				<g style="opacity:0.3;">
					
						<linearGradient id="SVGID_00000123440437922268426530000015165372480090997640_" gradientUnits="userSpaceOnUse" x1="-2943.1069" y1="4170.4424" x2="-2928.2749" y2="4170.4424" gradientTransform="matrix(-0.3092 0.951 0.951 0.3092 -3573.1167 2016.7596)">
						<stop  offset="0" style="stop-color:#B37CFF"/>
						<stop  offset="1" style="stop-color:#F895E7"/>
					</linearGradient>
					<path style="fill:url(#SVGID_00000123440437922268426530000015165372480090997640_);" d="M1311.98,519.958
						c0.754-2.318-0.064-4.945-2.181-6.391c-3.948-2.701-8.032-5.319-12.138-7.78c-2.668-1.599-6.126-0.733-7.729,1.937
						c-1.613,2.667-0.731,6.13,1.937,7.729c3.913,2.345,7.806,4.84,11.574,7.417c2.565,1.756,6.071,1.097,7.832-1.47
						C1311.584,520.943,1311.817,520.457,1311.98,519.958z"/>
					
						<linearGradient id="SVGID_00000031195334139565422190000003599106699445866125_" gradientUnits="userSpaceOnUse" x1="-2949.1108" y1="4003.8159" x2="-2658.4087" y2="4003.8159" gradientTransform="matrix(-0.3092 0.951 0.951 0.3092 -3573.1167 2016.7596)">
						<stop  offset="0" style="stop-color:#B37CFF"/>
						<stop  offset="1" style="stop-color:#F895E7"/>
					</linearGradient>
					<path style="fill:url(#SVGID_00000031195334139565422190000003599106699445866125_);" d="M1273.902,499.417
						c-1.26,2.845-4.584,4.134-7.432,2.875c-7.185-3.172-14.616-6.013-22.084-8.441c-1.575-0.512-3.162-1.007-4.758-1.489
						c-2.976-0.901-4.662-4.044-3.763-7.024c0.963-2.783,4.045-4.662,7.027-3.765c1.67,0.506,3.33,1.025,4.978,1.56
						c7.828,2.545,15.62,5.524,23.154,8.853c2.667,1.176,3.966,4.174,3.083,6.889
						C1274.049,499.057,1273.978,499.236,1273.902,499.417z M1211.782,485.771c-9.383-1.624-18.951-2.684-28.435-3.143
						c-3.11-0.152-5.504-2.79-5.354-5.901c0.154-3.092,2.791-5.507,5.901-5.355c9.94,0.481,19.972,1.589,29.81,3.295
						c3.067,0.531,5.122,3.447,4.593,6.516c-0.047,0.268-0.116,0.532-0.198,0.786
						C1217.245,484.591,1214.576,486.254,1211.782,485.771z M1154.732,483.028c-9.481,0.722-19.014,2.049-28.343,3.943
						c-3.047,0.618-6.023-1.353-6.641-4.401c-0.619-3.059,1.346-6.025,4.4-6.644c9.782-1.987,19.786-3.375,29.725-4.136
						c3.103-0.236,5.814,2.087,6.049,5.189c0.055,0.756-0.039,1.489-0.26,2.169C1158.977,481.255,1157.076,482.847,1154.732,483.028
						z M1098.75,494.386c-9.028,3.03-17.952,6.65-26.508,10.757c-2.81,1.346-6.174,0.162-7.518-2.644
						c-1.341-2.799-0.164-6.169,2.641-7.517c8.98-4.307,18.331-8.1,27.801-11.28c2.949-0.991,6.146,0.601,7.137,3.55
						c0.395,1.19,0.377,2.419,0.016,3.529C1101.785,492.422,1100.511,493.796,1098.75,494.386z M1047.239,519.068
						c-8.016,5.132-15.786,10.808-23.104,16.871c-2.393,1.985-5.946,1.651-7.933-0.745c-1.987-2.396-1.659-5.95,0.745-7.934
						c7.667-6.355,15.815-12.303,24.213-17.685c2.622-1.676,6.106-0.913,7.783,1.706c0.948,1.48,1.118,3.236,0.614,4.785
						C1049.168,517.261,1048.379,518.336,1047.239,519.068z M1003.279,555.505c-6.52,6.921-12.667,14.313-18.271,21.977
						c-1.835,2.511-5.363,3.059-7.873,1.222c-2.51-1.837-3.057-5.351-1.224-7.876c5.876-8.036,12.327-15.793,19.165-23.053
						c2.136-2.262,5.7-2.371,7.963-0.238c1.638,1.545,2.148,3.84,1.496,5.847C1004.287,554.152,1003.871,554.879,1003.279,555.505z
						 M969.58,601.568c-4.608,8.283-8.757,16.967-12.327,25.814c-1.169,2.883-4.452,4.278-7.336,3.112
						c-2.885-1.163-4.237-4.427-3.117-7.337c3.749-9.271,8.098-18.376,12.93-27.064c1.514-2.719,4.946-3.698,7.665-2.186
						c2.392,1.33,3.436,4.149,2.62,6.66C969.905,600.907,969.761,601.242,969.58,601.568z M936.153,687.374
						c-3.083-0.429-5.231-3.274-4.801-6.358c1.188-8.532,2.867-17.146,4.977-25.579c0.314-1.284,0.646-2.556,0.984-3.829
						c0.714-3.014,3.895-4.791,6.906-3.978c3.006,0.807,4.785,3.896,3.981,6.904c-0.323,1.191-0.632,2.39-0.931,3.614
						c-2.023,8.071-3.623,16.288-4.758,24.424c-0.046,0.335-0.122,0.661-0.223,0.969
						C941.458,686.093,938.898,687.758,936.153,687.374z"/>
				</g>
				<g style="opacity:0.3;">
					
						<linearGradient id="SVGID_00000053542390110770931890000012983787416876144314_" gradientUnits="userSpaceOnUse" x1="-2819.3796" y1="4282.4951" x2="-2487.5903" y2="4282.4951" gradientTransform="matrix(-0.3092 0.951 0.951 0.3092 -3573.1167 2016.7596)">
						<stop  offset="0" style="stop-color:#B37CFF"/>
						<stop  offset="1" style="stop-color:#F895E7"/>
					</linearGradient>
					<path style="fill:url(#SVGID_00000053542390110770931890000012983787416876144314_);" d="M1402.781,792.967
						c-3.157,9.299-6.912,18.484-11.152,27.307c-1.35,2.801-4.715,3.984-7.522,2.635c-2.807-1.349-3.95-4.724-2.635-7.522
						c4.047-8.411,7.625-17.173,10.637-26.045c0.999-2.947,4.202-4.524,7.146-3.524c2.923,0.994,4.5,4.151,3.549,7.076
						C1402.805,792.894,1402.789,792.943,1402.781,792.967z M1403.897,768.852c-3.044-0.64-4.994-3.629-4.352-6.672
						c1.925-9.161,3.317-18.53,4.131-27.85c0.278-3.081,3.003-5.394,6.108-5.119c3.1,0.27,5.389,3.002,5.121,6.103
						c-0.855,9.767-2.312,19.586-4.333,29.185c-0.043,0.203-0.094,0.397-0.157,0.591
						C1409.537,767.79,1406.746,769.451,1403.897,768.852z M1377.229,846.041c-5.314,8.265-11.176,16.276-17.426,23.809
						c-1.988,2.394-5.543,2.725-7.935,0.738c-2.398-1.986-2.723-5.526-0.742-7.934c5.964-7.185,11.555-14.825,16.629-22.708
						c1.684-2.618,5.17-3.374,7.783-1.694c2.201,1.416,3.086,4.104,2.314,6.48C1377.704,845.183,1377.498,845.622,1377.229,846.041z
						 M1410.235,711.628c-3.109,0.111-5.72-2.322-5.831-5.431c-0.333-9.354-1.244-18.778-2.713-28.016
						c-0.483-3.07,1.613-5.959,4.677-6.45c3.075-0.487,5.964,1.607,6.451,4.681c1.543,9.687,2.5,19.575,2.847,29.385
						c0.022,0.679-0.075,1.332-0.273,1.942C1414.682,709.926,1412.665,711.541,1410.235,711.628z M1339.62,891.351
						c-7.129,6.729-14.746,13.091-22.639,18.914c-2.504,1.847-6.034,1.313-7.881-1.191c-1.848-2.504-1.32-6.033,1.191-7.881
						c7.533-5.55,14.794-11.62,21.591-18.04c2.262-2.135,5.828-2.034,7.967,0.232c1.464,1.549,1.875,3.717,1.259,5.614
						C1340.826,889.865,1340.33,890.68,1339.62,891.351z M1292.233,926.321c-8.55,4.835-17.472,9.193-26.511,12.955
						c-2.871,1.195-6.167-0.162-7.362-3.036c-1.197-2.869,0.161-6.171,3.038-7.368c8.619-3.589,17.129-7.748,25.289-12.362
						c2.708-1.532,6.147-0.577,7.679,2.132c0.808,1.431,0.924,3.066,0.452,4.518
						C1294.397,924.453,1293.509,925.599,1292.233,926.321z M1237.832,948.941c-9.465,2.651-19.177,4.741-28.857,6.218
						c-3.08,0.468-5.951-1.646-6.42-4.723c-0.47-3.075,1.65-5.947,4.719-6.419c9.234-1.404,18.492-3.399,27.515-5.931
						c2.998-0.839,6.109,0.91,6.946,3.908c0.315,1.112,0.268,2.237-0.064,3.257C1241.107,946.982,1239.717,948.411,1237.832,948.941
						z"/>
					
						<linearGradient id="SVGID_00000169532732831094886100000012803687580906076591_" gradientUnits="userSpaceOnUse" x1="-2855.8525" y1="4303.2451" x2="-2833.1614" y2="4303.2451" gradientTransform="matrix(-0.3092 0.951 0.951 0.3092 -3573.1167 2016.7596)">
						<stop  offset="0" style="stop-color:#B37CFF"/>
						<stop  offset="1" style="stop-color:#F895E7"/>
					</linearGradient>
					<path style="fill:url(#SVGID_00000169532732831094886100000012803687580906076591_);" d="M1406.295,650.635
						c0.336-1.034,0.377-2.175,0.054-3.298c-1.334-4.635-2.814-9.249-4.392-13.72c-1.037-2.932-4.257-4.474-7.192-3.438
						c-2.925,1.043-4.468,4.256-3.437,7.192c1.507,4.262,2.917,8.667,4.193,13.089c0.861,2.991,3.987,4.715,6.975,3.853
						C1404.361,653.773,1405.736,652.354,1406.295,650.635z"/>
				</g>
				<g>
					
						<linearGradient id="SVGID_00000093175232896466153680000013050686096943651229_" gradientUnits="userSpaceOnUse" x1="3128.6216" y1="2384.7944" x2="5123.0068" y2="5067.8872" gradientTransform="matrix(0.3688 -0.9295 0.9295 0.3688 -4008.7405 3226.6853)">
						<stop  offset="0" style="stop-color:#A737D5"/>
						<stop  offset="1" style="stop-color:#EF497A"/>
					</linearGradient>
					<path style="fill:url(#SVGID_00000093175232896466153680000013050686096943651229_);" d="M1313.074,597.562
						c-0.66-1.023-1.895-1.516-3.077-1.227l-33.731,8.253c-11.657-11.274-25.196-20.77-40.27-27.931l-4.109-34.46
						c-0.144-1.209-1.039-2.192-2.229-2.451l-40.709-8.82c-1.19-0.259-2.413,0.267-3.043,1.307l-18.004,29.669
						c-16.687,0.279-32.943,3.319-48.221,8.757l-27.289-21.474c-0.957-0.753-2.286-0.815-3.309-0.157l-35.023,22.548
						c-1.023,0.659-1.517,1.895-1.227,3.077l8.253,33.73c-11.275,11.657-20.771,25.196-27.932,40.271l-34.46,4.109
						c-1.209,0.144-2.193,1.039-2.451,2.229l-8.821,40.71c-0.258,1.19,0.268,2.411,1.308,3.043l29.669,18.005
						c0.279,16.687,3.319,32.943,8.758,48.22l-21.476,27.29c-0.752,0.956-0.816,2.285-0.157,3.308l22.549,35.023
						c0.659,1.023,1.895,1.515,3.076,1.226l33.732-8.253c11.656,11.274,25.195,20.771,40.27,27.932l4.109,34.46
						c0.143,1.208,1.039,2.193,2.229,2.451l40.709,8.821c1.19,0.258,2.411-0.268,3.043-1.308l18.004-29.669
						c16.687-0.279,32.943-3.32,48.221-8.758l27.289,21.475c0.956,0.753,2.285,0.816,3.309,0.157l35.023-22.548
						c1.024-0.659,1.516-1.895,1.227-3.077l-8.254-33.731c11.275-11.657,20.771-25.196,27.932-40.271l34.46-4.109
						c1.208-0.144,2.192-1.039,2.451-2.229l8.82-40.709c0.258-1.19-0.267-2.412-1.308-3.043l-29.668-18.004
						c-0.279-16.687-3.32-32.943-8.758-48.22l21.475-27.29c0.753-0.956,0.815-2.286,0.157-3.309L1313.074,597.562z"/>
					<path style="opacity:0.56;fill:#FFFFFF;" d="M1208.753,733.02c-5.059,10.202-13.79,17.82-24.581,21.451
						c-10.786,3.634-22.345,2.847-32.544-2.216c-21.05-10.445-29.657-36.029-19.233-57.127
						c10.454-21.05,36.078-29.675,57.122-19.229c10.199,5.06,17.817,13.789,21.449,24.578c2.952,8.771,2.984,18.051,0.174,26.695
						C1210.495,729.157,1209.697,731.114,1208.753,733.02z M1156.634,742.16c7.504,3.724,16.005,4.303,23.945,1.631
						c7.933-2.672,14.356-8.276,18.079-15.777l0,0c3.713-7.507,4.3-16.004,1.628-23.943c-2.668-7.935-8.277-14.355-15.774-18.077
						c-15.485-7.685-34.333-1.34-42.022,14.143c-0.692,1.399-1.27,2.821-1.739,4.263
						C1136.025,718.934,1142.55,735.17,1156.634,742.16z"/>
					<path style="opacity:0.56;fill:#FFFFFF;" d="M1270.714,747.389c1.102-3.391,2.04-6.864,2.815-10.42
						c1.532-7.061,2.347-14.286,2.422-21.491c0.001-0.324,0.002-0.648,0.003-0.971c0.004-2.504-1.625-4.628-3.885-5.366
						c-0.549-0.178-1.137-0.274-1.744-0.275c-3.112-0.004-5.623,2.523-5.637,5.629c-0.006,6.728-0.739,13.484-2.172,20.083
						l-0.001,0.003c-0.078,0.362-0.161,0.726-0.243,1.084c-3.534,15.587-10.82,29.703-21.101,41.396
						c-5.582,6.346-12.053,11.979-19.299,16.737c-0.059,0.039-0.118,0.077-0.177,0.116c-0.183,0.117-0.36,0.236-0.542,0.35
						c-21.309,13.717-46.683,18.318-71.45,12.951c-3.206-0.692-6.349-1.543-9.426-2.544c-20.701-6.733-38.31-20.269-50.256-38.82
						c-13.717-21.309-18.313-46.682-12.947-71.446c5.372-24.748,20.057-45.962,41.362-59.683
						c21.308-13.717,46.683-18.318,71.45-12.951c3.152,0.68,6.258,1.523,9.303,2.513c13.207,4.297,25.324,11.432,35.459,20.942
						c0.625,0.586,1.346,1.002,2.111,1.248c2.01,0.653,4.311,0.143,5.852-1.502c2.123-2.275,2.018-5.833-0.257-7.967
						c-11.342-10.639-24.9-18.626-39.671-23.434c-3.412-1.109-6.884-2.05-10.409-2.814c-27.713-6.004-56.101-0.857-79.942,14.492
						c-23.835,15.349-40.287,39.041-46.275,66.768c-6.006,27.71-0.862,56.096,14.491,79.936
						c13.359,20.755,33.062,35.897,56.222,43.43c3.438,1.118,6.958,2.071,10.542,2.848
						C1200.96,829.851,1254.094,798.51,1270.714,747.389z"/>
				</g>
			</g>
		</g>
		<g>
			<g>
				
					<linearGradient id="SVGID_00000140014024300773007080000014362683867556842393_" gradientUnits="userSpaceOnUse" x1="1905.6161" y1="1517.7363" x2="1241.438" y2="2836.8274">
					<stop  offset="0" style="stop-color:#CB236D"/>
					<stop  offset="1" style="stop-color:#4C246D"/>
				</linearGradient>
				
					<circle style="fill:url(#SVGID_00000140014024300773007080000014362683867556842393_);" cx="1683.779" cy="1958.315" r="378.804"/>
				
					<linearGradient id="SVGID_00000003827181507003085530000018078419833052899731_" gradientUnits="userSpaceOnUse" x1="2180.8047" y1="726.0427" x2="1673.4281" y2="1984.0558">
					<stop  offset="0" style="stop-color:#A737D5"/>
					<stop  offset="1" style="stop-color:#EF497A"/>
				</linearGradient>
				
					<circle style="fill:url(#SVGID_00000003827181507003085530000018078419833052899731_);" cx="1683.14" cy="1959.976" r="366.944"/>
			</g>
			<g>
				<path style="fill:#FFFFFF;" d="M1851.811,2203.201c-13.232,0-26.368-5.634-35.534-16.567l-327.439-390.534
					c-16.442-19.612-13.874-48.836,5.738-65.281c19.615-16.44,48.84-13.874,65.281,5.738l327.439,390.533
					c16.442,19.612,13.874,48.836-5.738,65.281C1872.878,2199.649,1862.314,2203.201,1851.811,2203.201z"/>
				<path style="fill:#FFFFFF;" d="M1483.41,2200.35c-12.166,0-24.312-4.76-33.41-14.223c-17.736-18.445-17.162-47.782,1.285-65.516
					l386.345-371.478c18.452-17.748,47.784-17.164,65.52,1.285c17.737,18.445,17.162,47.781-1.285,65.516l-386.345,371.478
					C1506.534,2196.056,1494.963,2200.35,1483.41,2200.35z"/>
			</g>
		</g>
		<g>
			
				<linearGradient id="SVGID_00000083810218808640269620000013883006671000754079_" gradientUnits="userSpaceOnUse" x1="18121.5977" y1="2641.2407" x2="17669.3516" y2="2899.3762" gradientTransform="matrix(-1 0 0 1 19947.5723 0)">
				<stop  offset="0" style="stop-color:#F9B776"/>
				<stop  offset="1" style="stop-color:#F47960"/>
			</linearGradient>
			<path style="fill:url(#SVGID_00000083810218808640269620000013883006671000754079_);" d="M1894.732,3062.062
				c0.534-0.205,287.388-502.556,326.151-549.831c6.522-7.951,16.614-12,26.826-10.783l80.066,9.541l94.061,203.487l-156.702-91.261
				c15.506,107.239-185.799,266.608-254.838,324.761c-7.006,5.902-7.581,16.472-1.253,23.096l27.562,28.853
				c-45.25,45.867-97.466,75.319-156.399,88.941L1894.732,3062.062z"/>
			
				<linearGradient id="SVGID_00000118385911146544257090000011479708019570049459_" gradientUnits="userSpaceOnUse" x1="-8193.5039" y1="-3205.6826" x2="-8228.2217" y2="-2673.3525" gradientTransform="matrix(0.8974 -0.4412 0.4412 0.8974 10652.2939 2161.1482)">
				<stop  offset="0" style="stop-color:#CB236D"/>
				<stop  offset="1" style="stop-color:#4C246D"/>
			</linearGradient>
			<path style="fill:url(#SVGID_00000118385911146544257090000011479708019570049459_);" d="M2020.66,2984.353
				c0,0,17.591,5.683,23.547,21.35c2.849,7.496-0.222,15.986-6.741,20.656c-28.966,20.752-124.512,87.751-168.603,100.873
				c-3.614,1.076-7.053-2.195-6.24-5.876c2.263-10.243,9.582-30.697,33.161-60.64l-2.116,4.279c-2.677,5.415,3.22,11.053,8.48,8.084
				C1931.639,3056.431,1991.706,3019.993,2020.66,2984.353z"/>
			
				<linearGradient id="SVGID_00000135680445166477415200000015030400328533821369_" gradientUnits="userSpaceOnUse" x1="18077.8477" y1="2705.6177" x2="19625.207" y2="1736.9465" gradientTransform="matrix(-1 0 0 1 19947.5723 0)">
				<stop  offset="0" style="stop-color:#F9B776"/>
				<stop  offset="1" style="stop-color:#F47960"/>
			</linearGradient>
			<path style="fill:url(#SVGID_00000135680445166477415200000015030400328533821369_);" d="M2006.464,3185.355
				c0.481-0.309,43.519-104,44-104.308c39.46-240.252,135.736-446.009,164.129-500.151c4.777-9.106,13.841-15.114,24.088-15.989
				l80.34-6.86l133.295,180.24l-171.928-57.659c36.887,101.882-127.999,298.693-183.841,369.614
				c-5.667,7.198-4.092,17.666,3.447,22.872l32.831,22.678c-35.031,54.075-80.206,93.485-135.163,118.751L2006.464,3185.355z"/>
			
				<linearGradient id="SVGID_00000033343684705350328390000006609875987376148864_" gradientUnits="userSpaceOnUse" x1="-6773.522" y1="-5471.8721" x2="-6808.2373" y2="-4939.5767" gradientTransform="matrix(0.7895 -0.6137 0.6137 0.7895 10669.8828 3191.1018)">
				<stop  offset="0" style="stop-color:#CB236D"/>
				<stop  offset="1" style="stop-color:#4C246D"/>
			</linearGradient>
			<path style="fill:url(#SVGID_00000033343684705350328390000006609875987376148864_);" d="M2114.059,3083.77
				c0,0,18.377,2.004,27.381,16.143c4.307,6.764,3.017,15.7-2.421,21.593c-24.167,26.185-104.177,111.133-144.699,132.906
				c-3.322,1.785-7.351-0.721-7.3-4.492c0.143-10.489,3.171-32.001,20.203-66.096l-1.206,4.618c-1.526,5.845,5.39,10.173,9.94,6.2
				C2041.468,3172.372,2092.918,3124.532,2114.059,3083.77z"/>
			<g>
				
					<linearGradient id="SVGID_00000059280854958287551650000013404223598106925759_" gradientUnits="userSpaceOnUse" x1="9866.2852" y1="2317.126" x2="9494.3301" y2="2724.7476" gradientTransform="matrix(-1 0 0 1 12115.873 0)">
					<stop  offset="0" style="stop-color:#A737D5"/>
					<stop  offset="1" style="stop-color:#EF497A"/>
				</linearGradient>
				<path style="fill:url(#SVGID_00000059280854958287551650000013404223598106925759_);" d="M2695.083,2520.088
					c0,0,72.678,108.099,78.642,157.41c5.964,49.31-20.097,66.363-96.166,72.651c-226.37,18.713-337.961-49.131-337.961-49.131
					c-15.485-98.734-26.504-123.853-155.833-177.536c0,0,163.579,12.987,196.501,0.211
					C2413.186,2510.918,2695.083,2520.088,2695.083,2520.088z"/>
			</g>
			<g>
				
					<linearGradient id="SVGID_00000165217339805496373570000004545807824333141895_" gradientUnits="userSpaceOnUse" x1="-11039.8945" y1="-170.532" x2="-10928.6855" y2="108.4317" gradientTransform="matrix(0.9446 -0.3283 0.3283 0.9446 12812.0361 -1699.1722)">
					<stop  offset="0" style="stop-color:#2B3582"/>
					<stop  offset="1" style="stop-color:#150E42"/>
				</linearGradient>
				<path style="fill:url(#SVGID_00000165217339805496373570000004545807824333141895_);" d="M2405.267,1914.448
					c0,0,50.619-59.891,104.435,13.591c9.747,13.309,47.183,2.329,60.907,30.186c7.086,14.383,22.392,22.554,38.159,19.645
					c39.27-7.243,103.457-7.853,135.149,53.685c24.19,46.971,5.513,74.461-18.668,90.133c-17.76,11.512-24.099,34.881-13.359,53.118
					c10.301,17.492,12.238,41.179-14.36,69.686c-59.605,63.883-177.596-40.541-177.596-40.541l-93.683-221.374L2405.267,1914.448z"
					/>
				
					<linearGradient id="SVGID_00000021078969442572708910000015531118198575643523_" gradientUnits="userSpaceOnUse" x1="17470.1348" y1="2278.2405" x2="16404.0195" y2="3306.6199" gradientTransform="matrix(-1 0 0 1 19947.5723 0)">
					<stop  offset="0" style="stop-color:#FDF53F"/>
					<stop  offset="1" style="stop-color:#D93C65"/>
				</linearGradient>
				<path style="fill:url(#SVGID_00000021078969442572708910000015531118198575643523_);" d="M2498.532,2505.778
					c0,0-84.634-80.588-126.294-133.966c-22.52-28.854-29.592-66.838-19.177-101.926c19.021-64.08,52.822-130.45,55.905-140.78
					c4.725-15.833,99.622-15.174,99.622-15.174s186.739,121.195,260.109,326.49l-82.399,25.653c0,0-48.758-81.799-96.933-133.806
					c0,0,83.36,110.122,86.296,155.203L2498.532,2505.778z"/>
				
					<linearGradient id="SVGID_00000093879624829677807440000002372996978192545714_" gradientUnits="userSpaceOnUse" x1="-8933.043" y1="2492.449" x2="-8482.5391" y2="2492.449" gradientTransform="matrix(1 0 0 1 11551.1094 0)">
					<stop  offset="0" style="stop-color:#F9B776"/>
					<stop  offset="1" style="stop-color:#F47960"/>
				</linearGradient>
				<path style="fill:url(#SVGID_00000093879624829677807440000002372996978192545714_);" d="M2337.278,2537.58l63.594-69.19
					l73.444,19.776c0,0,85.625,13.266,134.63,0c49.006-13.265,49.006-13.265,49.006-13.265l110.744-34.478l17.393,49.155
					c4.417,12.48-0.021,26.335-10.812,34.003c-9.581,6.808-20.812,14.29-27.97,17.422c-14.584,6.38-335.955,2.017-335.955,2.017
					L2337.278,2537.58z"/>
				
					<linearGradient id="SVGID_00000070822075644490443880000004197625813338709179_" gradientUnits="userSpaceOnUse" x1="-10910.5508" y1="1393.458" x2="-10888.5283" y2="1232.3472" gradientTransform="matrix(0.9974 -0.0717 0.0717 0.9974 13216.9805 105.0094)">
					<stop  offset="0" style="stop-color:#F9B776"/>
					<stop  offset="1" style="stop-color:#F47960"/>
				</linearGradient>
				<path style="fill:url(#SVGID_00000070822075644490443880000004197625813338709179_);" d="M2443.367,1999.833l63.78,118.602
					c-4.211,25.889-69.418,26.62-79.49,11.16c-1.026-1.573-1.612-3.393-2.001-5.23l-38.154-79.247
					c-1.638-7.727,19.547-33.765,26.519-37.477l25.351-13.494C2449.134,1988.953,2408.402,1988.544,2443.367,1999.833z"/>
				<g>
					
						<linearGradient id="SVGID_00000012454209366385306080000003188108794225555097_" gradientUnits="userSpaceOnUse" x1="-9969.9102" y1="-3468.6438" x2="-9762.5547" y2="-3837.6658" gradientTransform="matrix(0.5458 -0.8379 0.8379 0.5458 10797.9961 -4320.769)">
						<stop  offset="0" style="stop-color:#F9B776"/>
						<stop  offset="1" style="stop-color:#F47960"/>
					</linearGradient>
					<path style="fill:url(#SVGID_00000012454209366385306080000003188108794225555097_);" d="M2314.287,1971.999
						c0,0-7.2,40.07,24.295,91.017c31.494,50.947,62.856,48.647,78.79,30.478c15.933-18.169,35.019-48.43,26.335-99.244
						C2435.022,1943.436,2325.166,1920.901,2314.287,1971.999z"/>
					
						<linearGradient id="SVGID_00000049934823894632780620000002821748393964291771_" gradientUnits="userSpaceOnUse" x1="-9925.3203" y1="-3790.0044" x2="-9821.6436" y2="-3529.9338" gradientTransform="matrix(0.5458 -0.8379 0.8379 0.5458 10797.9961 -4320.769)">
						<stop  offset="0" style="stop-color:#2B3582"/>
						<stop  offset="1" style="stop-color:#150E42"/>
					</linearGradient>
					<path style="fill:url(#SVGID_00000049934823894632780620000002821748393964291771_);" d="M2405.58,1999.772
						c0,0-50.997-66.984-90.15-8.591l0.66,20.172c0,0-50.914-2.38-45.393-49.307c5.521-46.928,47.088-78.984,104.712-62.952
						s91.296,34.292,97.803,74.3c6.508,40.008-26.161,33.472-26.161,33.472s-12.478-27.606-27.547-29.491
						c-15.068-1.886-9.624,19.951-9.624,19.951L2405.58,1999.772z"/>
					
						<linearGradient id="SVGID_00000144322565240370931100000016583739041057328310_" gradientUnits="userSpaceOnUse" x1="-9925.7705" y1="-3443.8459" x2="-9718.418" y2="-3812.8652" gradientTransform="matrix(0.5458 -0.8379 0.8379 0.5458 10797.9961 -4320.769)">
						<stop  offset="0" style="stop-color:#F9B776"/>
						<stop  offset="1" style="stop-color:#F47960"/>
					</linearGradient>
					<path style="fill:url(#SVGID_00000144322565240370931100000016583739041057328310_);" d="M2417.283,1997.986
						c0,0-26.417-34.28-2.371-41.394c24.047-7.115,23.148,33.589,21.582,48.732L2417.283,1997.986z"/>
				</g>
			</g>
			<g>
				
					<linearGradient id="SVGID_00000123423998163334941510000005893502721186539399_" gradientUnits="userSpaceOnUse" x1="-9026.749" y1="2098.876" x2="-9262.4209" y2="2163.4675" gradientTransform="matrix(0.9988 -0.0494 0.0494 0.9988 11509.6406 -55.0328)">
					<stop  offset="0" style="stop-color:#2B3582"/>
					<stop  offset="1" style="stop-color:#150E42"/>
				</linearGradient>
				<path style="fill:url(#SVGID_00000123423998163334941510000005893502721186539399_);" d="M2547.782,2564.964
					c-0.223,0.01-0.447,0.017-0.672,0.015l-292.505-0.319c-7.23-0.006-13.086-5.874-13.079-13.105
					c0.007-7.233,5.897-13.209,13.108-13.079l292.504,0.319c7.231,0.006,13.086,5.874,13.079,13.105
					C2560.209,2558.906,2554.7,2564.622,2547.782,2564.964z"/>
				
					<linearGradient id="SVGID_00000035508741460086763870000006300590980496237756_" gradientUnits="userSpaceOnUse" x1="2051.6667" y1="2328.6316" x2="2422.676" y2="2668.1406">
					<stop  offset="0" style="stop-color:#2B3582"/>
					<stop  offset="1" style="stop-color:#150E42"/>
				</linearGradient>
				<path style="fill:url(#SVGID_00000035508741460086763870000006300590980496237756_);" d="M1991.656,2299.388h243.6
					c17.97,0,34.327,10.371,41.992,26.624l112.616,238.796h-302.729c-11.581,0-21.986-7.076-26.242-17.846l-87.328-220.97
					C1968.518,2313.224,1977.927,2299.388,1991.656,2299.388z"/>
				
					<linearGradient id="SVGID_00000026876466944859114960000005451347793081204897_" gradientUnits="userSpaceOnUse" x1="-9373.7646" y1="2379.0066" x2="-9449.6387" y2="2493.2646" gradientTransform="matrix(1 0 0 1 11551.1094 0)">
					<stop  offset="0" style="stop-color:#53D8FF"/>
					<stop  offset="0.2057" style="stop-color:#4DB9FD"/>
					<stop  offset="1" style="stop-color:#3840F7"/>
				</linearGradient>
				<path style="fill:url(#SVGID_00000026876466944859114960000005451347793081204897_);" d="M2163.275,2421.826
					c5.279,16.401,1.379,32.329-8.711,35.576c-10.09,3.248-22.548-7.415-27.827-23.816c-5.279-16.4-1.379-32.328,8.71-35.575
					C2145.537,2394.762,2157.996,2405.425,2163.275,2421.826z"/>
			</g>
		</g>
	</g>
</g>
</svg>
